<?xml version="1.0" encoding="utf-8"?>
<!-- Generator: Adobe Illustrator 19.2.1, SVG Export Plug-In . SVG Version: 6.00 Build 0)  -->
<svg version="1.1" id="Layer_1" xmlns="http://www.w3.org/2000/svg" xmlns:xlink="http://www.w3.org/1999/xlink" x="0px" y="0px"
	 viewBox="0 0 313 301.3" style="enable-background:new 0 0 313 301.3;" xml:space="preserve">
<style type="text/css">
	.st0{fill:url(#SVGID_1_);}
	.st1{fill:url(#SVGID_2_);}
	.st2{fill:#FFFFFF;}
</style>
<g>
	<linearGradient id="SVGID_1_" gradientUnits="userSpaceOnUse" x1="1.5686" y1="136.4564" x2="285.7157" y2="136.4564">
		<stop  offset="0" style="stop-color:#F37C1F"/>
		<stop  offset="1" style="stop-color:#F26500"/>
	</linearGradient>
	<path class="st0" d="M221.9,121.9l60.3,100.8c9.7,16.3-1.8,36.9-20.7,37.2L144,261.8l-117.4,1.9c-18.9,0.3-31.1-20-21.9-36.6
		l57.1-102.6L119,21.8c9.2-16.5,32.9-16.9,42.6-0.7L221.9,121.9z"/>
	<linearGradient id="SVGID_2_" gradientUnits="userSpaceOnUse" x1="167.3613" y1="1.7129" x2="167.3613" y2="299.9666">
		<stop  offset="0" style="stop-color:#BB1400"/>
		<stop  offset="1" style="stop-color:#5F1000"/>
	</linearGradient>
	<path class="st1" d="M207.3,89.2l95,81.3c15.3,13.1,10.7,37.9-8.3,44.6l-117.9,41.6L58.2,298.4c-19,6.7-38.1-9.7-34.5-29.5
		L46.6,146L69.5,23.1C73.2,3.2,97-5.1,112.3,8L207.3,89.2z"/>
	<g>
		<path class="st2" d="M103.8,145.5c0,1.5-0.3,3-0.8,4.4s-1.3,2.8-2.4,4.2s-2.8,2.5-5,3.3s-4.8,1.3-7.9,1.3H67.2v-45.9h20.4
			c2.8,0,5.3,0.4,7.4,1.3c2.1,0.8,3.6,1.9,4.6,3.2c1,1.3,1.8,2.6,2.2,3.9c0.5,1.3,0.7,2.5,0.7,3.7c0,2-0.5,3.7-1.4,5.1
			c-0.9,1.4-2.5,2.9-4.7,4.3C101.3,137.4,103.8,141.1,103.8,145.5z M76.7,120.7v10.4h10.2c4.4,0,6.7-1.7,6.7-5.2
			c0-3.5-2.2-5.2-6.7-5.2H76.7z M76.7,139v11.9h11.2c4.6,0,7-2,7-5.9c0-4-2.3-6-7-6H76.7z"/>
		<path class="st2" d="M119.4,160.2c-3.1,0-5.6-0.9-7.5-2.8c-1.9-1.9-2.8-4.4-2.8-7.4c0-6,3.4-9.5,10.1-10.6l3.5-0.6
			c0.1,0,0.5-0.1,1.3-0.2c0.8-0.1,1.2-0.2,1.4-0.3c0.2-0.1,0.6-0.2,1.2-0.3s1-0.3,1.3-0.4c0.3-0.2,0.6-0.4,0.9-0.7
			c0.4-0.3,0.6-0.6,0.7-0.9c0.1-0.4,0.2-0.8,0.2-1.2c0-2.3-1.7-3.4-5.1-3.4c-2.2,0-3.7,0.3-4.6,1s-1.4,1.9-1.6,3.6h-8.6
			c0.5-7.9,5.4-11.8,14.6-11.8c9.4,0,14.1,3.5,14.1,10.5v18.8c0,1.6,0.7,3,2,4.2v1.1h-9.8c-0.7-0.8-1-2-1-3.4
			C126.6,158.6,123.1,160.2,119.4,160.2z M129.6,145.1v-2.4c-0.8,0.4-2,0.7-3.7,1.1l-3,0.6c-1.8,0.4-3.1,0.9-3.9,1.6
			c-0.8,0.7-1.1,1.7-1.1,3s0.4,2.2,1.3,3c0.9,0.7,2,1.1,3.5,1.1c2.2,0,3.9-0.7,5.1-2.1C129,149.6,129.6,147.6,129.6,145.1z"/>
		<path class="st2" d="M146.2,124.7h8.9v6.1c0.9-2.1,2.2-3.7,3.9-4.9c1.7-1.2,3.5-1.7,5.5-1.7c0.4,0,0.7,0,1.1,0.1v8.2
			c-1.1-0.2-2-0.3-2.8-0.3c-5.2,0-7.7,2.7-7.7,8v18.6h-8.9V124.7z"/>
		<path class="st2" d="M185.1,124.2c1.5,0,2.9,0.2,4.3,0.5c1.4,0.3,2.8,0.9,4.3,1.8c1.4,0.9,2.7,2,3.8,3.4s1.9,3.2,2.6,5.4
			c0.7,2.2,1,4.8,1,7.7c0,0.5,0,1-0.1,1.5h-22.7c0,1.3,0.2,2.4,0.3,3.4c0.2,1,0.5,1.9,1,2.8c0.5,0.9,1.2,1.6,2.1,2.1
			s2.1,0.7,3.6,0.7c3.4,0,5.6-1.4,6.7-4.3h8.7c-1,3.4-2.9,6-5.7,8c-2.9,2-6.2,3-10,3c-4.8,0-8.6-1.6-11.4-4.7
			c-2.8-3.1-4.2-7.4-4.2-12.9c0-5.7,1.4-10.2,4.2-13.5C176.4,125.8,180.2,124.2,185.1,124.2z M191.9,138.7c-0.2-2.5-0.9-4.4-2-5.8
			c-1.2-1.4-2.8-2-4.8-2c-3.9,0-6.1,2.6-6.7,7.8H191.9z"/>
		<path class="st2" d="M214.1,148.9c0.3,1.5,0.9,2.7,1.8,3.5c0.9,0.8,2.6,1.2,5.1,1.2c2,0,3.6-0.3,4.8-0.9c1.1-0.6,1.7-1.5,1.7-2.6
			c0-0.7-0.2-1.3-0.7-1.7c-0.4-0.4-1.2-0.8-2.3-1.2l-10.5-3.3c0,0-0.3-0.1-0.8-0.2c-0.5-0.1-0.8-0.3-1-0.4c-0.2-0.1-0.5-0.2-1-0.4
			s-0.9-0.4-1.2-0.6c-0.3-0.2-0.6-0.5-1-0.8s-0.7-0.7-1-1.1c-0.2-0.4-0.5-0.8-0.7-1.3s-0.4-1.1-0.6-1.7c-0.1-0.6-0.2-1.3-0.2-2.1
			c0-3.4,1.3-6.2,3.8-8.2c2.5-2,5.9-3,10.3-3c4.6,0,8.2,1,10.8,3.1c2.6,2.1,4,4.9,4,8.5h-8.6c0-3.2-2.2-4.9-6.3-4.9
			c-1.5,0-2.8,0.3-3.7,0.9c-0.9,0.6-1.4,1.3-1.4,2.3c0,0.7,0.2,1.2,0.6,1.5c0.4,0.4,1.2,0.7,2.5,1.1l11.2,3.2c4.4,1.4,6.7,4.3,6.7,9
			c0,1.3-0.2,2.5-0.7,3.8c-0.5,1.2-1.2,2.4-2.2,3.6c-1,1.2-2.6,2.2-4.6,2.9c-2.1,0.7-4.5,1.1-7.3,1.1c-10.4,0-15.8-3.8-16-11.3
			L214.1,148.9L214.1,148.9z"/>
	</g>
	<g>
		<path class="st2" d="M60.5,172.9v3.3h-2.7v15.3h-4.7v-15.3h-2.5v-3.3h2.5v-2.3c0-3.2,1.5-4.7,4.6-4.7c0.9,0,1.8,0,2.7,0.1v3.7
			c-0.4-0.1-0.8-0.1-1.3-0.1c-0.8,0-1.3,0.5-1.3,1.5v1.8H60.5z"/>
		<path class="st2" d="M79.8,191.4h-4.7v-2.2c-1.3,2-3.1,3-5.4,3c-1.9,0-3.4-0.6-4.5-1.7c-1.1-1.1-1.6-2.8-1.6-4.8v-13.2h4.7v12.2
			c0,2.3,1,3.4,3,3.4c1.1,0,2-0.3,2.7-1s1-1.6,1-2.7v-11.9h4.7v18.9H79.8z M70,165.4v4.4h-3.7v-4.4H70z M76.5,165.4v4.4h-3.7v-4.4
			H76.5z"/>
		<path class="st2" d="M84.1,172.5h4.7v3.4c0.5-1.2,1.2-2.1,2.1-2.7c0.9-0.6,1.9-1,2.9-1c0.2,0,0.4,0,0.6,0v4.6
			c-0.6-0.1-1-0.1-1.5-0.1c-2.7,0-4.1,1.5-4.1,4.4v10.3h-4.7V172.5z"/>
	</g>
	<g>
		<path class="st2" d="M129.6,202.3c0-1.3,0-2.3,0.1-3.1c0-0.7,0.1-1.4,0.1-1.9c0-2-0.5-3.4-1.4-4.3c-0.9-0.9-2.4-1.3-4.4-1.3h-10.6
			v18.8h-9.3v-47.4h24.1c2.3,0,4.3,0.4,5.9,1.2c1.7,0.8,2.9,1.9,3.8,3.3c0.8,1.3,1.4,2.7,1.8,4.1c0.4,1.4,0.6,2.8,0.6,4.3
			c0,5.7-2.5,9.6-7.6,11.7c1.1,0.5,2,0.9,2.5,1.1c0.5,0.3,1.1,0.7,1.6,1.4c0.6,0.7,0.9,1.2,1.1,1.8c0.2,0.5,0.4,1.5,0.6,2.9
			c0.2,1.4,0.3,2.8,0.3,4.1s0.1,3.3,0.1,6c0,1.8,0.6,3.1,1.9,3.9v1.8h-9.9c-0.5-1.1-0.9-2.2-1-3.3
			C129.6,206.1,129.6,204.5,129.6,202.3z M130.9,177.2c0-2.4-0.5-4-1.6-4.8s-2.7-1.2-4.9-1.2h-11.1v12.3h11.1c2.2,0,3.8-0.4,4.9-1.2
			S130.9,179.8,130.9,177.2z"/>
		<path class="st2" d="M156.3,211.9c-3.1,0-5.5-1-7.4-2.9s-2.8-4.5-2.8-7.7c0-6.2,3.3-9.8,9.9-11l3.4-0.6c0.1,0,0.5-0.1,1.2-0.2
			c0.7-0.1,1.2-0.2,1.4-0.3s0.6-0.2,1.2-0.3c0.6-0.1,1-0.3,1.3-0.5c0.2-0.2,0.5-0.4,0.9-0.7s0.6-0.6,0.7-1c0.1-0.4,0.2-0.8,0.2-1.3
			c0-2.3-1.7-3.5-5-3.5c-2.1,0-3.6,0.3-4.5,1s-1.4,1.9-1.6,3.7h-8.4c0.5-8.1,5.3-12.2,14.3-12.2c9.2,0,13.9,3.6,13.9,10.8v19.4
			c0,1.6,0.7,3.1,2,4.3v1.1h-9.6c-0.7-0.9-1-2.1-1-3.5C163.4,210.2,160,211.9,156.3,211.9z M166.4,196.3v-2.5
			c-0.8,0.4-2,0.8-3.6,1.1l-2.9,0.6c-1.8,0.4-3.1,0.9-3.8,1.7c-0.7,0.7-1.1,1.8-1.1,3.1s0.4,2.3,1.3,3.1s2,1.1,3.4,1.1
			c2.2,0,3.8-0.7,5-2.1S166.4,198.9,166.4,196.3z"/>
		<path class="st2" d="M182.7,175.3h8.7v6.3c0.9-2.2,2.2-3.9,3.8-5.1c1.6-1.2,3.5-1.8,5.4-1.8c0.4,0,0.7,0,1,0.1v8.5
			c-1-0.2-1.9-0.3-2.7-0.3c-5.1,0-7.6,2.7-7.6,8.2v19.2h-8.7v-35.1H182.7z"/>
		<path class="st2" d="M220.8,174.7c1.4,0,2.8,0.2,4.2,0.5s2.7,1,4.2,1.9c1.4,0.9,2.7,2.1,3.7,3.5s1.9,3.3,2.6,5.6c0.7,2.3,1,5,1,8
			c0,0.5,0,1-0.1,1.6H214c0,1.4,0.2,2.5,0.3,3.5c0.2,1,0.5,1.9,1,2.9c0.5,0.9,1.2,1.7,2.1,2.2c0.9,0.5,2.1,0.8,3.5,0.8
			c3.3,0,5.5-1.5,6.6-4.5h8.5c-0.9,3.5-2.8,6.2-5.6,8.3s-6.1,3.1-9.8,3.1c-4.7,0-8.5-1.6-11.2-4.8s-4.1-7.7-4.1-13.3
			c0-5.9,1.4-10.5,4.1-13.9C212.2,176.4,216,174.7,220.8,174.7z M227.4,189.7c-0.2-2.6-0.9-4.6-2-6s-2.7-2.1-4.7-2.1
			c-3.8,0-6,2.7-6.5,8.1H227.4z"/>
		<path class="st2" d="M249.2,200.2c0.3,1.6,0.9,2.7,1.8,3.6c0.9,0.8,2.6,1.2,5,1.2c2,0,3.6-0.3,4.7-0.9c1.1-0.6,1.7-1.5,1.7-2.6
			c0-0.7-0.2-1.3-0.6-1.8s-1.2-0.9-2.3-1.2l-10.3-3.4c0,0-0.3-0.1-0.7-0.2c-0.5-0.2-0.8-0.3-1-0.4s-0.5-0.2-1-0.4s-0.9-0.4-1.1-0.6
			c-0.3-0.2-0.6-0.5-1-0.8s-0.7-0.7-1-1.1c-0.2-0.4-0.5-0.8-0.7-1.4c-0.2-0.5-0.4-1.1-0.6-1.8c-0.1-0.7-0.2-1.4-0.2-2.1
			c0-3.5,1.2-6.4,3.7-8.4c2.5-2.1,5.8-3.1,10.1-3.1c4.5,0,8,1.1,10.6,3.2c2.6,2.1,3.9,5,4,8.7h-8.4c0-3.3-2.1-5-6.2-5
			c-1.5,0-2.7,0.3-3.6,0.9s-1.4,1.4-1.4,2.4c0,0.7,0.2,1.2,0.6,1.6c0.4,0.4,1.2,0.7,2.4,1.1l10.9,3.3c4.4,1.4,6.5,4.5,6.5,9.2
			c0,1.3-0.2,2.6-0.7,3.9c-0.5,1.3-1.2,2.5-2.2,3.8c-1,1.2-2.5,2.2-4.5,3s-4.4,1.1-7.2,1.1c-10.2,0-15.5-3.9-15.7-11.7h8.4V200.2z"
			/>
	</g>
</g>
</svg>
